<?xml version="1.0" encoding="UTF-8"?>
<svg version="1.1" xmlns="http://www.w3.org/2000/svg" width="512" height="512">
<path d="M0 0 C-2.99175821 52.19812325 -17.18088042 99.81138899 -41 146 C-41.44053711 146.86141602 -41.88107422 147.72283203 -42.33496094 148.61035156 C-54.22365567 171.61440877 -70.15202299 192.44899864 -87 212 C-87.87011719 213.02287109 -87.87011719 213.02287109 -88.7578125 214.06640625 C-98.89199947 225.85567401 -109.70301462 236.86896539 -121.18603516 247.33886719 C-122.95205612 248.95609553 -124.70296112 250.58803669 -126.44921875 252.2265625 C-132.12273904 257.54065168 -137.87545423 262.66654744 -143.94140625 267.53515625 C-146.27996686 269.41974341 -148.59645361 271.32220516 -150.90234375 273.24609375 C-159.88583981 280.7311298 -169.02010802 287.93972338 -178.45166016 294.85302734 C-179.76031511 295.82244724 -181.04518515 296.82385182 -182.32421875 297.83203125 C-184 299 -184 299 -186 299 C-185.54109375 299.87140625 -185.0821875 300.7428125 -184.609375 301.640625 C-170.64187292 328.57060858 -169.33395873 357.95058703 -178.47265625 386.86328125 C-180.10573089 391.66620838 -181.99288072 396.34239376 -184 401 C-184.36367676 401.8441748 -184.72735352 402.68834961 -185.10205078 403.55810547 C-190.91585616 416.80983565 -197.91134909 429.01652706 -206 441 C-206.49790039 441.74266113 -206.99580078 442.48532227 -207.50878906 443.25048828 C-213.9976212 452.86960068 -220.97705513 461.85785986 -228.69287109 470.52099609 C-231.07667453 473.21824698 -233.37846888 475.98733364 -235.6953125 478.7421875 C-237 480 -237 480 -239 480 C-238.57037931 474.84455171 -237.82705812 470.06648012 -236.5 465.0625 C-230.1206542 440.22972951 -233.89669558 413.13035563 -246.3581543 390.89794922 C-249 386.18148314 -249 386.18148314 -249 384 C-249.66 384 -250.32 384 -251 384 C-251.268125 383.38125 -251.53625 382.7625 -251.8125 382.125 C-252.95556848 379.7004767 -252.95556848 379.7004767 -256 378 C-256.45375 377.236875 -256.9075 376.47375 -257.375 375.6875 C-259.23657121 372.60874761 -261.39811603 370.47798474 -264 368 C-264.825 367.13375 -265.65 366.2675 -266.5 365.375 C-268.8911595 363.10339848 -271.17636892 361.66521833 -274 360 C-274.598125 359.38125 -275.19625 358.7625 -275.8125 358.125 C-277.80100906 356.19330549 -279.71427774 354.67979813 -282 353.125 C-282.99 352.44824219 -282.99 352.44824219 -284 351.7578125 C-285.98671155 350.76926254 -285.98671155 350.76926254 -288 351.62890625 C-293.53185038 355.42124899 -297.88050933 360.77141569 -302 366 C-305.44356982 367.72178491 -309.2271572 367.37858976 -313 367 C-315.96912882 365.61019502 -317.69657028 364.30342972 -320 362 C-320.56847656 362.63808594 -321.13695312 363.27617187 -321.72265625 363.93359375 C-328.81460578 371.52280852 -328.81460578 371.52280852 -333.0625 372.0625 C-334.031875 372.041875 -335.00125 372.02125 -336 372 C-336.08419189 372.54857666 -336.16838379 373.09715332 -336.25512695 373.66235352 C-337.54591583 381.03925313 -339.88652713 387.95820148 -342.46606445 394.9675293 C-343.1831989 396.9257553 -343.87814131 398.89094093 -344.57226562 400.85742188 C-349.64510628 414.9281677 -356.84217111 427.8141741 -370.8125 434.625 C-374.24749332 436.13304585 -376.38533576 435.94624718 -380 435 C-380.25394531 434.00097656 -380.50789063 433.00195312 -380.76953125 431.97265625 C-381.11652272 430.6690937 -381.4642154 429.36571765 -381.8125 428.0625 C-381.97814453 427.40314453 -382.14378906 426.74378906 -382.31445312 426.06445312 C-382.86528568 423.92680031 -382.86528568 423.92680031 -384 421 C-386.92118095 419.66041826 -386.92118095 419.66041826 -389.375 420.99609375 C-390.24125 421.47175781 -391.1075 421.94742187 -392 422.4375 C-396.69209809 425 -396.69209809 425 -400 425 C-400.33 425.66 -400.66 426.32 -401 427 C-403.90212875 427.91246698 -406.93671805 428.2736854 -409.9375 428.75 C-410.75541016 428.90082031 -411.57332031 429.05164063 -412.41601562 429.20703125 C-413.23650391 429.33980469 -414.05699219 429.47257812 -414.90234375 429.609375 C-416.00823853 429.7945166 -416.00823853 429.7945166 -417.13647461 429.98339844 C-421.47491341 430.00855095 -425.74573925 428.85085215 -430 428 C-429.34 419.75 -428.68 411.5 -428 403 C-427.34 403 -426.68 403 -426 403 C-425.773125 401.700625 -425.54625 400.40125 -425.3125 399.0625 C-424.16650858 393.79261246 -421.82029153 389.55337143 -419 385 C-420.21558594 384.68546875 -421.43117188 384.3709375 -422.68359375 384.046875 C-424.26847544 383.61548709 -425.85309787 383.18314591 -427.4375 382.75 C-428.23994141 382.54503906 -429.04238281 382.34007812 -429.86914062 382.12890625 C-430.63291016 381.91621094 -431.39667969 381.70351563 -432.18359375 381.484375 C-432.89056396 381.29584961 -433.59753418 381.10732422 -434.32592773 380.91308594 C-436 380 -436 380 -436.78100586 378.04638672 C-437.35138312 372.71650691 -433.07321509 367.44454751 -430.046875 363.37109375 C-421.64207023 353.46975 -411.22205059 348.27269429 -399.25 343.6875 C-398.16589844 343.25888672 -397.08179688 342.83027344 -395.96484375 342.38867188 C-387.75183428 339.17466756 -380.87623431 336.68855318 -372 337 C-372.2165625 335.7625 -372.2165625 335.7625 -372.4375 334.5 C-371.86779743 329.94237943 -369.9286273 328.17076812 -366.82421875 324.9296875 C-365.04562058 323.04825818 -363.51449287 321.09699013 -362 319 C-362.825 318.38125 -363.65 317.7625 -364.5 317.125 C-366.9606517 314.62899411 -367.51408228 312.66728639 -367.75 309.1875 C-367.41133037 302.99991424 -364.34572071 300.08592219 -360 296 C-358.35286416 294.33462057 -356.70703188 292.66795085 -355.0625 291 C-353.71083496 289.66413071 -352.35757174 288.3298662 -351 287 C-353.47090536 281.69212922 -356.06037892 277.3520332 -360 273 C-360.56074219 272.34902344 -361.12148438 271.69804687 -361.69921875 271.02734375 C-371.40855108 259.0292283 -371.40855108 259.0292283 -384 251 C-384 250.34 -384 249.68 -384 249 C-385.65 248.67 -387.3 248.34 -389 248 C-389 247.34 -389 246.68 -389 246 C-389.64710938 245.7421875 -390.29421875 245.484375 -390.9609375 245.21875 C-392.61698331 244.5546288 -394.27218072 243.88830776 -395.92285156 243.2109375 C-409.09227964 237.80690267 -409.09227964 237.80690267 -423 235 C-424.29679687 234.82339844 -425.59359375 234.64679688 -426.9296875 234.46484375 C-433.2945718 233.76327565 -439.66755023 233.89330311 -446.0625 233.9375 C-447.30966797 233.94201172 -448.55683594 233.94652344 -449.84179688 233.95117188 C-452.89458221 233.96286837 -455.94726498 233.97925914 -459 234 C-459.33 234.66 -459.66 235.32 -460 236 C-462.12032536 236.23559171 -464.24180847 236.46391906 -466.3671875 236.6484375 C-470.72883112 237.23085282 -474.83449787 238.61729679 -479 240 C-479 237 -479 237 -476.6875 234.5 C-475.800625 233.675 -474.91375 232.85 -474 232 C-473.443125 231.401875 -472.88625 230.80375 -472.3125 230.1875 C-471 229 -471 229 -469 229 C-469 228.34 -469 227.68 -469 227 C-467.70922852 225.77001953 -467.70922852 225.77001953 -465.87890625 224.3828125 C-465.19940918 223.86428711 -464.51991211 223.34576172 -463.81982422 222.81152344 C-463.07490723 222.2549707 -462.32999023 221.69841797 -461.5625 221.125 C-460.41418701 220.2592334 -460.41418701 220.2592334 -459.24267578 219.37597656 C-435.43453147 201.52352063 -410.77546584 185.70115277 -382 177 C-380.8346875 176.61070312 -379.669375 176.22140625 -378.46875 175.8203125 C-360.74416967 170.42646697 -336.26480246 170.08960627 -319 177 C-317.92234375 177.40863281 -316.8446875 177.81726563 -315.734375 178.23828125 C-310.00102689 180.5189111 -304.4738539 183.15780663 -299 186 C-298.63648438 185.20142578 -298.63648438 185.20142578 -298.265625 184.38671875 C-296.65912679 181.35718046 -294.739605 178.59731525 -292.75 175.8125 C-292.31888916 175.20881592 -291.88777832 174.60513184 -291.44360352 173.9831543 C-286.16061917 166.69809946 -280.38172247 159.82195368 -274.60839844 152.92431641 C-269.71793243 147.07327618 -264.88584943 141.18039219 -260.25 135.125 C-257.70348532 131.82743951 -255.03026334 128.8707758 -252 126 C-251.175 125.175 -250.35 124.35 -249.5 123.5 C-247.89569806 121.89569806 -246.27206001 120.31037264 -244.625 118.75 C-242.424492 116.44470591 -240.5886721 114.16851822 -238.6875 111.625 C-235.24311525 107.11734866 -231.39026803 103.5659728 -227 100 C-224.15336104 97.66121212 -221.34753368 95.35055046 -218.75 92.73046875 C-208.39809835 82.45208913 -196.83851188 73.48584531 -185 65 C-184.26797363 64.4740625 -183.53594727 63.948125 -182.78173828 63.40625 C-130.81483801 26.33318589 -64.50485959 0 0 0 Z " fill="#D9E2E9" transform="translate(496,16)"/>
<path d="M0 0 C-2.01165305 35.09792798 -8.64320456 69.06106505 -21 102 C-24 102 -24 102 -26.85546875 99.40234375 C-27.97374113 98.25474837 -29.08412016 97.09942134 -30.1875 95.9375 C-33.54836548 92.44011191 -36.90382062 89.03550093 -40.60791016 85.89868164 C-45.60258458 81.55444514 -50.17945476 76.83566802 -54.79296875 72.09375 C-56.6574567 70.19717393 -58.52269122 68.30135509 -60.38867188 66.40625 C-63.30666106 63.44023207 -66.21967789 60.46970319 -69.11791992 57.484375 C-71.02352618 55.5221964 -72.9367666 53.56812783 -74.85945129 51.62268066 C-76.66336135 49.79714931 -78.45570377 47.96010036 -80.2351532 46.11071777 C-81.04982559 45.2923645 -81.86449799 44.47401123 -82.70385742 43.63085938 C-83.41475021 42.90362671 -84.12564301 42.17639404 -84.858078 41.42712402 C-86.9370161 39.72488993 -86.9370161 39.72488993 -89.62268066 40.19656372 C-92.28469783 41.09621617 -94.3756036 42.25140396 -96.73828125 43.7734375 C-97.63264893 44.34521729 -98.5270166 44.91699707 -99.44848633 45.50610352 C-100.39361084 46.12283936 -101.33873535 46.7395752 -102.3125 47.375 C-103.29436279 48.00913818 -104.27622559 48.64327637 -105.2878418 49.29663086 C-128.33914377 64.2486743 -150.58490247 80.56611447 -171 99 C-172.19496094 100.07507813 -172.19496094 100.07507813 -173.4140625 101.171875 C-175.12903089 102.71586467 -176.84258908 104.26142224 -178.5546875 105.80859375 C-180.72396899 107.75263036 -182.91743596 109.6622635 -185.125 111.5625 C-188.58525168 114.5711124 -191.79576643 117.77705989 -195.01171875 121.04296875 C-196.88551042 122.88730986 -198.81313471 124.60632066 -200.8125 126.3125 C-208.10625528 132.60121026 -214.81616935 139.51439632 -221.05859375 146.83984375 C-223.60111268 149.66884369 -226.29477067 152.32747853 -229 155 C-232.88372707 158.84152557 -236.62554785 162.72372777 -240.16796875 166.88671875 C-242.04894563 169.05645967 -243.98928109 171.16470243 -245.94287109 173.26904297 C-250.70650447 178.40298265 -255.24525655 183.64929766 -259.63671875 189.109375 C-261.79347349 191.74738906 -264.002601 194.32319756 -266.2409668 196.89135742 C-273.02206613 204.68177748 -279.30198635 212.79459277 -285.51416016 221.04248047 C-286.81968177 222.76243976 -288.14197477 224.46582543 -289.48046875 226.16015625 C-301.77651911 241.79282329 -313.14438162 258.17462638 -322.70019531 275.62792969 C-323.60780085 277.28425865 -324.5245655 278.93558716 -325.44824219 280.58300781 C-326.89884361 283.17152335 -328.327688 285.77085144 -329.75 288.375 C-330.19327637 289.16616211 -330.63655273 289.95732422 -331.09326172 290.77246094 C-331.4904541 291.5152832 -331.88764648 292.25810547 -332.296875 293.0234375 C-332.82812988 293.99676025 -332.82812988 293.99676025 -333.37011719 294.98974609 C-334.21577074 297.68862647 -333.76194194 299.29112302 -333 302 C-331.70440954 303.85989936 -331.70440954 303.85989936 -329.96826172 305.4699707 C-329.33024628 306.10445633 -328.69223083 306.73894196 -328.03488159 307.39265442 C-327.34016754 308.06358627 -326.64545349 308.73451813 -325.9296875 309.42578125 C-325.21523468 310.13220261 -324.50078186 310.83862396 -323.76467896 311.56645203 C-321.47737769 313.82477311 -319.17690824 316.06907814 -316.875 318.3125 C-314.59708321 320.54766963 -312.32206447 322.78570956 -310.04959106 325.02641296 C-308.63638037 326.41823174 -307.21966447 327.80650405 -305.79879761 329.19050598 C-301.86070388 333.05075065 -298.15204908 337.02079305 -294.59036255 341.23210144 C-292.27784834 343.80276719 -289.72254704 345.87508523 -287 348 C-288.5054419 351.56935418 -290.59287562 353.77091235 -293.375 356.4375 C-296.50177944 359.48397692 -299.30998107 362.55677577 -302 366 C-305.44356982 367.72178491 -309.2271572 367.37858976 -313 367 C-315.96912882 365.61019502 -317.69657028 364.30342972 -320 362 C-320.56847656 362.63808594 -321.13695312 363.27617187 -321.72265625 363.93359375 C-328.81460578 371.52280852 -328.81460578 371.52280852 -333.0625 372.0625 C-334.031875 372.041875 -335.00125 372.02125 -336 372 C-336.08419189 372.54857666 -336.16838379 373.09715332 -336.25512695 373.66235352 C-337.54591583 381.03925313 -339.88652713 387.95820148 -342.46606445 394.9675293 C-343.1831989 396.9257553 -343.87814131 398.89094093 -344.57226562 400.85742188 C-349.64510628 414.9281677 -356.84217111 427.8141741 -370.8125 434.625 C-374.24749332 436.13304585 -376.38533576 435.94624718 -380 435 C-380.25394531 434.00097656 -380.50789063 433.00195312 -380.76953125 431.97265625 C-381.11652272 430.6690937 -381.4642154 429.36571765 -381.8125 428.0625 C-381.97814453 427.40314453 -382.14378906 426.74378906 -382.31445312 426.06445312 C-382.86528568 423.92680031 -382.86528568 423.92680031 -384 421 C-386.92118095 419.66041826 -386.92118095 419.66041826 -389.375 420.99609375 C-390.24125 421.47175781 -391.1075 421.94742187 -392 422.4375 C-396.69209809 425 -396.69209809 425 -400 425 C-400.33 425.66 -400.66 426.32 -401 427 C-403.90212875 427.91246698 -406.93671805 428.2736854 -409.9375 428.75 C-410.75541016 428.90082031 -411.57332031 429.05164063 -412.41601562 429.20703125 C-413.23650391 429.33980469 -414.05699219 429.47257812 -414.90234375 429.609375 C-416.00823853 429.7945166 -416.00823853 429.7945166 -417.13647461 429.98339844 C-421.47491341 430.00855095 -425.74573925 428.85085215 -430 428 C-429.34 419.75 -428.68 411.5 -428 403 C-427.34 403 -426.68 403 -426 403 C-425.773125 401.700625 -425.54625 400.40125 -425.3125 399.0625 C-424.16650858 393.79261246 -421.82029153 389.55337143 -419 385 C-420.21558594 384.68546875 -421.43117188 384.3709375 -422.68359375 384.046875 C-424.26847544 383.61548709 -425.85309787 383.18314591 -427.4375 382.75 C-428.23994141 382.54503906 -429.04238281 382.34007812 -429.86914062 382.12890625 C-430.63291016 381.91621094 -431.39667969 381.70351563 -432.18359375 381.484375 C-432.89056396 381.29584961 -433.59753418 381.10732422 -434.32592773 380.91308594 C-436 380 -436 380 -436.78100586 378.04638672 C-437.35138312 372.71650691 -433.07321509 367.44454751 -430.046875 363.37109375 C-421.64207023 353.46975 -411.22205059 348.27269429 -399.25 343.6875 C-398.16589844 343.25888672 -397.08179688 342.83027344 -395.96484375 342.38867188 C-387.75183428 339.17466756 -380.87623431 336.68855318 -372 337 C-372.2165625 335.7625 -372.2165625 335.7625 -372.4375 334.5 C-371.86779743 329.94237943 -369.9286273 328.17076812 -366.82421875 324.9296875 C-365.04562058 323.04825818 -363.51449287 321.09699013 -362 319 C-362.825 318.38125 -363.65 317.7625 -364.5 317.125 C-366.9606517 314.62899411 -367.51408228 312.66728639 -367.75 309.1875 C-367.41133037 302.99991424 -364.34572071 300.08592219 -360 296 C-358.35286416 294.33462057 -356.70703188 292.66795085 -355.0625 291 C-353.71083496 289.66413071 -352.35757174 288.3298662 -351 287 C-353.47090536 281.69212922 -356.06037892 277.3520332 -360 273 C-360.56074219 272.34902344 -361.12148438 271.69804687 -361.69921875 271.02734375 C-371.40855108 259.0292283 -371.40855108 259.0292283 -384 251 C-384 250.34 -384 249.68 -384 249 C-385.65 248.67 -387.3 248.34 -389 248 C-389 247.34 -389 246.68 -389 246 C-389.64710938 245.7421875 -390.29421875 245.484375 -390.9609375 245.21875 C-392.61698331 244.5546288 -394.27218072 243.88830776 -395.92285156 243.2109375 C-409.09227964 237.80690267 -409.09227964 237.80690267 -423 235 C-424.29679687 234.82339844 -425.59359375 234.64679688 -426.9296875 234.46484375 C-433.2945718 233.76327565 -439.66755023 233.89330311 -446.0625 233.9375 C-447.30966797 233.94201172 -448.55683594 233.94652344 -449.84179688 233.95117188 C-452.89458221 233.96286837 -455.94726498 233.97925914 -459 234 C-459.33 234.66 -459.66 235.32 -460 236 C-462.12032536 236.23559171 -464.24180847 236.46391906 -466.3671875 236.6484375 C-470.72883112 237.23085282 -474.83449787 238.61729679 -479 240 C-479 237 -479 237 -476.6875 234.5 C-475.800625 233.675 -474.91375 232.85 -474 232 C-473.443125 231.401875 -472.88625 230.80375 -472.3125 230.1875 C-471 229 -471 229 -469 229 C-469 228.34 -469 227.68 -469 227 C-467.70922852 225.77001953 -467.70922852 225.77001953 -465.87890625 224.3828125 C-465.19940918 223.86428711 -464.51991211 223.34576172 -463.81982422 222.81152344 C-463.07490723 222.2549707 -462.32999023 221.69841797 -461.5625 221.125 C-460.41418701 220.2592334 -460.41418701 220.2592334 -459.24267578 219.37597656 C-435.43453147 201.52352063 -410.77546584 185.70115277 -382 177 C-380.8346875 176.61070312 -379.669375 176.22140625 -378.46875 175.8203125 C-360.74416967 170.42646697 -336.26480246 170.08960627 -319 177 C-317.92234375 177.40863281 -316.8446875 177.81726563 -315.734375 178.23828125 C-310.00102689 180.5189111 -304.4738539 183.15780663 -299 186 C-298.63648438 185.20142578 -298.63648438 185.20142578 -298.265625 184.38671875 C-296.65912679 181.35718046 -294.739605 178.59731525 -292.75 175.8125 C-292.31888916 175.20881592 -291.88777832 174.60513184 -291.44360352 173.9831543 C-286.16061917 166.69809946 -280.38172247 159.82195368 -274.60839844 152.92431641 C-269.71793243 147.07327618 -264.88584943 141.18039219 -260.25 135.125 C-257.70348532 131.82743951 -255.03026334 128.8707758 -252 126 C-251.175 125.175 -250.35 124.35 -249.5 123.5 C-247.89569806 121.89569806 -246.27206001 120.31037264 -244.625 118.75 C-242.424492 116.44470591 -240.5886721 114.16851822 -238.6875 111.625 C-235.24311525 107.11734866 -231.39026803 103.5659728 -227 100 C-224.15336104 97.66121212 -221.34753368 95.35055046 -218.75 92.73046875 C-208.39809835 82.45208913 -196.83851188 73.48584531 -185 65 C-184.26797363 64.4740625 -183.53594727 63.948125 -182.78173828 63.40625 C-130.81483801 26.33318589 -64.50485959 0 0 0 Z " fill="#C4CFD7" transform="translate(496,16)"/>
<path d="M0 0 C2.93230193 1.32120828 4.98664899 2.74638197 7.234375 5.0390625 C7.80800781 5.61914062 8.38164062 6.19921875 8.97265625 6.796875 C9.55917969 7.40015625 10.14570313 8.0034375 10.75 8.625 C11.35199219 9.23601562 11.95398438 9.84703125 12.57421875 10.4765625 C14.05405305 11.97988624 15.52764676 13.48934856 17 15 C14.77620909 24.2839774 10.5721526 32.61663141 6.375 41.125 C6.012854 41.86354218 5.65070801 42.60208435 5.27758789 43.36300659 C-9.11310974 72.69865538 -26.65350492 99.22875571 -48 124 C-48.87011719 125.02287109 -48.87011719 125.02287109 -49.7578125 126.06640625 C-59.89199947 137.85567401 -70.70301462 148.86896539 -82.18603516 159.33886719 C-83.95205612 160.95609553 -85.70296112 162.58803669 -87.44921875 164.2265625 C-93.12273904 169.54065168 -98.87545423 174.66654744 -104.94140625 179.53515625 C-107.27996686 181.41974341 -109.59645361 183.32220516 -111.90234375 185.24609375 C-120.88583981 192.7311298 -130.02010802 199.93972338 -139.45166016 206.85302734 C-140.76031511 207.82244724 -142.04518515 208.82385182 -143.32421875 209.83203125 C-145 211 -145 211 -147 211 C-146.31164062 212.30710937 -146.31164062 212.30710937 -145.609375 213.640625 C-131.64187292 240.57060858 -130.33395873 269.95058703 -139.47265625 298.86328125 C-141.10573089 303.66620838 -142.99288072 308.34239376 -145 313 C-145.36367676 313.8441748 -145.72735352 314.68834961 -146.10205078 315.55810547 C-151.91585616 328.80983565 -158.91134909 341.01652706 -167 353 C-167.49790039 353.74266113 -167.99580078 354.48532227 -168.50878906 355.25048828 C-174.9976212 364.86960068 -181.97705513 373.85785986 -189.69287109 382.52099609 C-192.07667453 385.21824698 -194.37846888 387.98733364 -196.6953125 390.7421875 C-198 392 -198 392 -200 392 C-199.57037931 386.84455171 -198.82705812 382.06648012 -197.5 377.0625 C-191.1206542 352.22972951 -194.89669558 325.13035563 -207.3581543 302.89794922 C-210 298.18148314 -210 298.18148314 -210 296 C-210.66 296 -211.32 296 -212 296 C-212.268125 295.38125 -212.53625 294.7625 -212.8125 294.125 C-213.95556848 291.7004767 -213.95556848 291.7004767 -217 290 C-217.680625 288.8553125 -217.680625 288.8553125 -218.375 287.6875 C-220.23657121 284.60874761 -222.39811603 282.47798474 -225 280 C-225.825 279.13375 -226.65 278.2675 -227.5 277.375 C-229.8911595 275.10339848 -232.17636892 273.66521833 -235 272 C-235.5775 271.401875 -236.155 270.80375 -236.75 270.1875 C-239.60504204 267.41176468 -242.79978814 265.46658351 -246.171875 263.3671875 C-246.77515625 262.91601562 -247.3784375 262.46484375 -248 262 C-248 261.34 -248 260.68 -248 260 C-248.84304687 259.64421875 -248.84304687 259.64421875 -249.703125 259.28125 C-252.51894042 257.71052303 -254.47955416 255.78528536 -256.75 253.5 C-257.54921875 252.7059375 -258.3484375 251.911875 -259.171875 251.09375 C-261 249 -261 249 -261 247 C-259.32550781 246.25169922 -259.32550781 246.25169922 -257.6171875 245.48828125 C-231.60006341 233.64233037 -208.46205279 217.66553734 -185.80664062 200.37744141 C-184.06805642 199.05188842 -182.32373152 197.73425316 -180.578125 196.41796875 C-173.90940737 191.36632877 -167.47866879 186.09538284 -161.125 180.65625 C-158.24919041 178.19835363 -155.31934117 175.81304799 -152.375 173.4375 C-147.60761997 169.55836545 -143.05797013 165.48053793 -138.53515625 161.3203125 C-136.46674242 159.42718797 -134.37594124 157.57748296 -132.25 155.75 C-123.16148707 147.84205679 -114.41841173 139.51309943 -105.96484375 130.93359375 C-104.07869508 129.07744347 -102.13572335 127.34443143 -100.125 125.625 C-92.75671113 119.28621257 -85.98118643 112.28344281 -79.67578125 104.89453125 C-77.86022622 102.84198069 -75.95240464 100.92253994 -74 99 C-70.7822401 95.82547296 -67.77562704 92.53803285 -64.83203125 89.109375 C-62.84688413 86.82370454 -60.7996017 84.60298622 -58.75 82.375 C-53.72154822 76.79536885 -49.12890605 70.92261243 -44.54052734 64.98193359 C-42.92225217 62.89997514 -41.28521934 60.83386459 -39.64453125 58.76953125 C-24.97934352 40.24886136 -11.58297245 20.60406393 0 0 Z " fill="#C4CFD7" transform="translate(457,104)"/>
<path d="M0 0 C2.3270241 2.32300506 4.65279298 4.64655573 6.95703125 6.9921875 C7.56933594 7.61351562 8.18164062 8.23484375 8.8125 8.875 C9.41707031 9.49117188 10.02164063 10.10734375 10.64453125 10.7421875 C12.50646373 12.52692543 14.38883882 14.18777265 16.3515625 15.85546875 C22.38504194 21.10124199 27.96799503 26.81915868 33.60913086 32.47875977 C35.5579687 34.43295624 37.51209272 36.38175147 39.46679688 38.33007812 C50.83396052 49.69243651 50.83396052 49.69243651 55.640625 55.46899414 C57.85403793 57.96186636 60.37629938 59.95223366 63 62 C61.4945581 65.56935418 59.40712438 67.77091235 56.625 70.4375 C53.49822056 73.48397692 50.69001893 76.55677577 48 80 C44.55643018 81.72178491 40.7728428 81.37858976 37 81 C34.03087118 79.61019502 32.30342972 78.30342972 30 76 C29.14728516 76.95712891 29.14728516 76.95712891 28.27734375 77.93359375 C21.18539422 85.52280852 21.18539422 85.52280852 16.9375 86.0625 C15.968125 86.041875 14.99875 86.02125 14 86 C13.91580811 86.54857666 13.83161621 87.09715332 13.74487305 87.66235352 C12.45408417 95.03925313 10.11347287 101.95820148 7.53393555 108.9675293 C6.8168011 110.9257553 6.12185869 112.89094093 5.42773438 114.85742188 C0.35489372 128.9281677 -6.84217111 141.8141741 -20.8125 148.625 C-24.24749332 150.13304585 -26.38533576 149.94624718 -30 149 C-30.25394531 148.00097656 -30.50789063 147.00195312 -30.76953125 145.97265625 C-31.11652272 144.6690937 -31.4642154 143.36571765 -31.8125 142.0625 C-31.97814453 141.40314453 -32.14378906 140.74378906 -32.31445312 140.06445312 C-32.86528568 137.92680031 -32.86528568 137.92680031 -34 135 C-36.92118095 133.66041826 -36.92118095 133.66041826 -39.375 134.99609375 C-40.24125 135.47175781 -41.1075 135.94742188 -42 136.4375 C-46.69209809 139 -46.69209809 139 -50 139 C-50.33 139.66 -50.66 140.32 -51 141 C-53.90212875 141.91246698 -56.93671805 142.2736854 -59.9375 142.75 C-60.75541016 142.90082031 -61.57332031 143.05164063 -62.41601562 143.20703125 C-63.23650391 143.33980469 -64.05699219 143.47257813 -64.90234375 143.609375 C-65.63960693 143.73280273 -66.37687012 143.85623047 -67.13647461 143.98339844 C-71.47491341 144.00855095 -75.74573925 142.85085215 -80 142 C-79.34 133.75 -78.68 125.5 -78 117 C-77.34 117 -76.68 117 -76 117 C-75.773125 115.700625 -75.54625 114.40125 -75.3125 113.0625 C-74.16650858 107.79261246 -71.82029153 103.55337143 -69 99 C-70.21558594 98.68546875 -71.43117188 98.3709375 -72.68359375 98.046875 C-74.26847544 97.61548709 -75.85309787 97.18314591 -77.4375 96.75 C-78.23994141 96.54503906 -79.04238281 96.34007812 -79.86914062 96.12890625 C-81.01479492 95.80986328 -81.01479492 95.80986328 -82.18359375 95.484375 C-83.24404907 95.20158691 -83.24404907 95.20158691 -84.32592773 94.91308594 C-86 94 -86 94 -86.78100586 92.04638672 C-87.35138312 86.71650691 -83.07321509 81.44454751 -80.046875 77.37109375 C-71.64207023 67.46975 -61.22205059 62.27269429 -49.25 57.6875 C-47.62384766 57.04458008 -47.62384766 57.04458008 -45.96484375 56.38867188 C-37.75183428 53.17466756 -30.87623431 50.68855318 -22 51 C-22.144375 50.175 -22.28875 49.35 -22.4375 48.5 C-21.86779743 43.94237943 -19.9286273 42.17076812 -16.82421875 38.9296875 C-15.04562058 37.04825818 -13.51449287 35.09699013 -12 33 C-12.825 32.38125 -13.65 31.7625 -14.5 31.125 C-16.9606517 28.62899411 -17.51408228 26.66728639 -17.75 23.1875 C-17.40166064 16.98155924 -14.35672816 14.10405324 -10 10 C-8.18629018 8.16786352 -6.37381508 6.33450403 -4.5625 4.5 C-3.04414831 2.99748805 -1.52419005 1.49658903 0 0 Z " fill="#FE9D27" transform="translate(146,302)"/>
<path d="M0 0 C14.67553058 24.72983026 16.26562899 51.73277534 9.68017578 79.40380859 C7.72987699 86.84798567 5.0423676 93.94005571 2 101 C1.63632324 101.8441748 1.27264648 102.68834961 0.89794922 103.55810547 C-4.91585616 116.80983565 -11.91134909 129.01652706 -20 141 C-20.49790039 141.74266113 -20.99580078 142.48532227 -21.50878906 143.25048828 C-27.9976212 152.86960068 -34.97705513 161.85785986 -42.69287109 170.52099609 C-45.07667453 173.21824698 -47.37846888 175.98733364 -49.6953125 178.7421875 C-51 180 -51 180 -53 180 C-52.57037931 174.84455171 -51.82705812 170.06648012 -50.5 165.0625 C-44.1206542 140.22972951 -47.89669558 113.13035563 -60.3581543 90.89794922 C-63 86.18148314 -63 86.18148314 -63 84 C-63.66 84 -64.32 84 -65 84 C-65.268125 83.38125 -65.53625 82.7625 -65.8125 82.125 C-66.95556848 79.7004767 -66.95556848 79.7004767 -70 78 C-70.680625 76.8553125 -70.680625 76.8553125 -71.375 75.6875 C-73.23657121 72.60874761 -75.39811603 70.47798474 -78 68 C-78.825 67.13375 -79.65 66.2675 -80.5 65.375 C-82.8911595 63.10339848 -85.17636892 61.66521833 -88 60 C-88.5775 59.401875 -89.155 58.80375 -89.75 58.1875 C-92.60504204 55.41176468 -95.79978814 53.46658351 -99.171875 51.3671875 C-99.77515625 50.91601562 -100.3784375 50.46484375 -101 50 C-101 49.34 -101 48.68 -101 48 C-99.86691406 47.70609375 -99.86691406 47.70609375 -98.7109375 47.40625 C-65.239727 38.31336846 -33.05779862 22.68989505 -5.07421875 2.14453125 C-2 0 -2 0 0 0 Z " fill="#3BA9CE" transform="translate(310,316)"/>
<path d="M0 0 C1.63388672 0.61294922 1.63388672 0.61294922 3.30078125 1.23828125 C8.80599822 3.40944741 13.95837193 5.90627369 19 9 C17.49446844 13.34569652 15.16708932 16.88033784 12.5625 20.625 C6.55318244 29.4776008 1.18378279 38.64373413 -4 48 C-4.50354004 48.9084668 -5.00708008 49.81693359 -5.52587891 50.75292969 C-15.97644011 69.77839442 -23.65908415 88.97014382 -29 110 C-32.53591555 108.82136148 -32.84997259 108.07420166 -34.75 105 C-39.15646057 98.14429087 -43.52747376 92.01620783 -50 87 C-51.18656389 85.68434236 -52.35148976 84.34900449 -53.5 83 C-56.89688461 79.03450645 -59.94801734 75.68399422 -65 74 C-65 73.34 -65 72.68 -65 72 C-66.65 71.67 -68.3 71.34 -70 71 C-70 70.34 -70 69.68 -70 69 C-70.64710937 68.7421875 -71.29421875 68.484375 -71.9609375 68.21875 C-73.61698331 67.5546288 -75.27218072 66.88830776 -76.92285156 66.2109375 C-90.09227964 60.80690267 -90.09227964 60.80690267 -104 58 C-105.29679687 57.82339844 -106.59359375 57.64679688 -107.9296875 57.46484375 C-114.2945718 56.76327565 -120.66755023 56.89330311 -127.0625 56.9375 C-128.30966797 56.94201172 -129.55683594 56.94652344 -130.84179688 56.95117188 C-133.89458221 56.96286837 -136.94726498 56.97925914 -140 57 C-140.33 57.66 -140.66 58.32 -141 59 C-143.12032536 59.23559171 -145.24180847 59.46391906 -147.3671875 59.6484375 C-151.72883112 60.23085282 -155.83449787 61.61729679 -160 63 C-160 60 -160 60 -157.6875 57.5 C-156.800625 56.675 -155.91375 55.85 -155 55 C-154.443125 54.401875 -153.88625 53.80375 -153.3125 53.1875 C-152 52 -152 52 -150 52 C-150 51.34 -150 50.68 -150 50 C-148.70922852 48.77001953 -148.70922852 48.77001953 -146.87890625 47.3828125 C-146.19940918 46.86428711 -145.51991211 46.34576172 -144.81982422 45.81152344 C-144.07490723 45.2549707 -143.32999023 44.69841797 -142.5625 44.125 C-141.41418701 43.2592334 -141.41418701 43.2592334 -140.24267578 42.37597656 C-116.43453147 24.52352063 -91.77546584 8.70115277 -63 0 C-61.25203125 -0.58394531 -61.25203125 -0.58394531 -59.46875 -1.1796875 C-41.73775143 -6.57548619 -17.27227259 -6.90444014 0 0 Z " fill="#3BA9CE" transform="translate(177,193)"/>
<path d="M0 0 C-2.01165305 35.09792798 -8.64320456 69.06106505 -21 102 C-24 102 -24 102 -26.85546875 99.40234375 C-27.97374113 98.25474837 -29.08412016 97.09942134 -30.1875 95.9375 C-33.54668254 92.44186321 -36.90247474 89.03485384 -40.59863281 85.89257812 C-45.59863255 81.54311479 -50.26247729 76.88113082 -54.94140625 72.19140625 C-55.86791489 71.26585434 -56.79442352 70.34030243 -57.74900818 69.38670349 C-59.69782361 67.43935145 -61.64484737 65.49023087 -63.59057617 63.53979492 C-66.06363861 61.06103605 -68.54116533 58.58679569 -71.02006626 56.1138773 C-73.41296201 53.72549855 -75.80200318 51.3332792 -78.19140625 48.94140625 C-79.07075333 48.0640834 -79.9501004 47.18676056 -80.85609436 46.28285217 C-85.25932627 41.86298875 -89.52433673 37.38647519 -93.57592773 32.64082336 C-96.04021917 29.80145414 -98.77666913 27.25448216 -101.49609375 24.6640625 C-103 23 -103 23 -103 21 C-69.89021869 9.36496736 -35.40332866 0 0 0 Z " fill="#F05744" transform="translate(496,16)"/>
<path d="M0 0 C8.79504511 6.48671101 16.16121513 14.79758951 18.21875 25.77734375 C19.69463805 37.96241947 18.6465482 48.20736729 11.2265625 58.234375 C3.8343883 67.04207192 -5.40120166 73.68994545 -17.16015625 74.7578125 C-30.19193974 74.88544995 -39.63350822 72.51992477 -49.4609375 63.421875 C-57.59709476 55.39468413 -61.71374563 45.6579109 -61.8359375 34.171875 C-61.62883958 21.8190931 -57.27542148 13.47743742 -48.8046875 4.70703125 C-35.57520384 -7.55520242 -15.25903418 -9.78515843 0 0 Z " fill="#EAF3F8" transform="translate(289.4609375,209.578125)"/>
<path d="M0 0 C8.79504511 6.48671101 16.16121513 14.79758951 18.21875 25.77734375 C19.69463805 37.96241947 18.6465482 48.20736729 11.2265625 58.234375 C3.8343883 67.04207192 -5.40120166 73.68994545 -17.16015625 74.7578125 C-30.19193974 74.88544995 -39.63350822 72.51992477 -49.4609375 63.421875 C-57.59709476 55.39468413 -61.71374563 45.6579109 -61.8359375 34.171875 C-61.62883958 21.8190931 -57.27542148 13.47743742 -48.8046875 4.70703125 C-35.57520384 -7.55520242 -15.25903418 -9.78515843 0 0 Z " fill="#EAF2F8" transform="translate(369.4609375,129.578125)"/>
<path d="M0 0 C2.3270241 2.32300506 4.65279298 4.64655573 6.95703125 6.9921875 C7.56933594 7.61351562 8.18164062 8.23484375 8.8125 8.875 C9.41707031 9.49117188 10.02164063 10.10734375 10.64453125 10.7421875 C12.50646373 12.52692543 14.38883882 14.18777265 16.3515625 15.85546875 C22.38504194 21.10124199 27.96799503 26.81915868 33.60913086 32.47875977 C35.5579687 34.43295624 37.51209272 36.38175147 39.46679688 38.33007812 C50.83396052 49.69243651 50.83396052 49.69243651 55.640625 55.46899414 C57.85403793 57.96186636 60.37629938 59.95223366 63 62 C61.4945581 65.56935418 59.40712438 67.77091235 56.625 70.4375 C53.49822056 73.48397692 50.69001893 76.55677577 48 80 C44.55643018 81.72178491 40.7728428 81.37858976 37 81 C34.03087118 79.61019502 32.30342972 78.30342972 30 76 C29.43152344 76.63808594 28.86304688 77.27617187 28.27734375 77.93359375 C24.85515744 81.59573302 22.09704871 84.53808476 17.4375 86.5 C13.67788027 85.95314622 12.96801248 85.38609535 10.26953125 82.9140625 C9.2168103 81.95838379 9.2168103 81.95838379 8.14282227 80.98339844 C7.43569092 80.32887695 6.72855957 79.67435547 6 79 C5.35538818 78.41508789 4.71077637 77.83017578 4.04663086 77.22753906 C-3.15835919 70.66764803 -10.24939702 63.96611744 -17 56.9375 C-17.51014648 56.42622559 -18.02029297 55.91495117 -18.54589844 55.38818359 C-20.87229928 52.90424052 -21.95467065 51.27163527 -22.51953125 47.88671875 C-21.91721223 44.53999878 -21.04348524 43.28464122 -18.6875 40.875 C-16.26602371 38.34691784 -14.05171167 35.84083155 -12 33 C-12.825 32.38125 -13.65 31.7625 -14.5 31.125 C-16.9606517 28.62899411 -17.51408228 26.66728639 -17.75 23.1875 C-17.40166064 16.98155924 -14.35672816 14.10405324 -10 10 C-8.18629018 8.16786352 -6.37381508 6.33450403 -4.5625 4.5 C-3.04414831 2.99748805 -1.52419005 1.49658903 0 0 Z " fill="#F05745" transform="translate(146,302)"/>
<path d="M0 0 C1.63388672 0.61294922 1.63388672 0.61294922 3.30078125 1.23828125 C8.80599822 3.40944741 13.95837193 5.90627369 19 9 C17.45556744 13.49677327 14.99281573 17.18188634 12.3125 21.0625 C7.90052235 27.55197787 3.84823566 34.15727633 0 41 C-4.01538631 39.47355165 -7.78466536 37.60766732 -11.625 35.6875 C-26.60762748 28.70404086 -40.31569724 26.53783219 -56.75 26.5 C-57.49076782 26.49541779 -58.23153564 26.49083557 -58.99475098 26.4861145 C-72.69514612 26.45255926 -85.48474702 28.64207358 -98.625 32.625 C-99.45128906 32.87443359 -100.27757812 33.12386719 -101.12890625 33.38085938 C-119.03333358 38.99450313 -136.29934014 47.16909481 -152.08984375 57.265625 C-154.6876795 58.81386537 -157.16234601 59.9757271 -160 61 C-158.4114658 56.71095765 -155.56872632 54.67654474 -152 52 C-151.34 52 -150.68 52 -150 52 C-150 51.34 -150 50.68 -150 50 C-148.70922852 48.77001953 -148.70922852 48.77001953 -146.87890625 47.3828125 C-146.19940918 46.86428711 -145.51991211 46.34576172 -144.81982422 45.81152344 C-144.07490723 45.2549707 -143.32999023 44.69841797 -142.5625 44.125 C-141.41418701 43.2592334 -141.41418701 43.2592334 -140.24267578 42.37597656 C-116.43453147 24.52352063 -91.77546584 8.70115277 -63 0 C-61.25203125 -0.58394531 -61.25203125 -0.58394531 -59.46875 -1.1796875 C-41.73775143 -6.57548619 -17.27227259 -6.90444014 0 0 Z " fill="#428CC1" transform="translate(177,193)"/>
<path d="M0 0 C14.67553058 24.72983026 16.26562899 51.73277534 9.68017578 79.40380859 C7.72987699 86.84798567 5.0423676 93.94005571 2 101 C1.63632324 101.8441748 1.27264648 102.68834961 0.89794922 103.55810547 C-4.91585616 116.80983565 -11.91134909 129.01652706 -20 141 C-20.49790039 141.74266113 -20.99580078 142.48532227 -21.50878906 143.25048828 C-27.99571364 152.8667729 -34.97338726 161.85756626 -42.68408203 170.52099609 C-44.55581147 172.62469497 -46.40131296 174.75105574 -48.25 176.875 C-49.16587987 177.91735852 -50.08216824 178.95935977 -51 180 C-51.66 179.67 -52.32 179.34 -53 179 C-52.41734375 178.13503906 -51.8346875 177.27007812 -51.234375 176.37890625 C-38.5009187 157.01267317 -29.62181891 136.15086324 -23 114 C-22.77344727 113.27103516 -22.54689453 112.54207031 -22.31347656 111.79101562 C-14.56194344 86.78528002 -13.88499082 55.6907223 -26.03515625 31.87109375 C-27.43941643 29.21361933 -28.90256814 26.59559987 -30.390625 23.984375 C-32 21 -32 21 -32 19 C-29.46439684 17.39361189 -26.92941485 15.90075106 -24.3125 14.4375 C-17.40938586 10.49721725 -10.87936675 6.27443552 -4.44140625 1.6171875 C-2 0 -2 0 0 0 Z " fill="#428CC1" transform="translate(310,316)"/>
<path d="M0 0 C-2.01165305 35.09792798 -8.64320456 69.06106505 -21 102 C-24 102 -24 102 -25.62573242 100.71484375 C-26.19654541 100.12832031 -26.7673584 99.54179688 -27.35546875 98.9375 C-27.97744141 98.30585937 -28.59941406 97.67421875 -29.24023438 97.0234375 C-29.88283203 96.35570313 -30.52542969 95.68796875 -31.1875 95 C-32.16879883 93.99839844 -32.16879883 93.99839844 -33.16992188 92.9765625 C-34.78686135 91.32421559 -36.39640491 89.66528399 -38 88 C-36.43544871 83.85758953 -34.5023364 79.95175783 -32.47265625 76.0234375 C-31.76003945 74.63012081 -31.04824057 73.23638557 -30.3371582 71.84228516 C-29.96563629 71.11390442 -29.59411438 70.38552368 -29.21133423 69.6350708 C-18.10238838 47.78073923 -8.41259864 25.72932071 -2 2 C-13.43869349 4.71626792 -24.15672908 8.48687754 -35 13 C-35.88751953 13.36899414 -36.77503906 13.73798828 -37.68945312 14.11816406 C-48.64340811 18.70718993 -59.42994533 23.58192227 -70.0625 28.875 C-70.97225586 29.32713867 -71.88201172 29.77927734 -72.81933594 30.24511719 C-77.43166735 32.57649164 -81.7771808 35.01837068 -86 38 C-88.89852365 36.68692628 -90.98277217 35.27315362 -93.234375 33.03125 C-93.80800781 32.46019531 -94.38164062 31.88914062 -94.97265625 31.30078125 C-95.55917969 30.70652344 -96.14570313 30.11226562 -96.75 29.5 C-97.35199219 28.90574219 -97.95398438 28.31148437 -98.57421875 27.69921875 C-99.14269531 27.12816406 -99.71117187 26.55710937 -100.296875 25.96875 C-100.81604492 25.44732422 -101.33521484 24.92589844 -101.87011719 24.38867188 C-103 23 -103 23 -103 21 C-69.89021869 9.36496736 -35.40332866 0 0 0 Z " fill="#C84D4D" transform="translate(496,16)"/>
<path d="M0 0 C0 0.66 0 1.32 0 2 C0.70125 2.185625 1.4025 2.37125 2.125 2.5625 C6.78015223 4.89007612 9.83013634 8.67996736 12.16015625 13.30078125 C14.47554799 20.74234261 13.75997011 29.75507847 11 37 C10.34 37 9.68 37 9 37 C8.773125 37.7425 8.54625 38.485 8.3125 39.25 C6.7410439 42.5425747 5.00004284 43.97497109 2 46 C1.34 46 0.68 46 0 46 C0 46.66 0 47.32 0 48 C-7.42264018 50.82767245 -16.79128653 51.75963326 -24.1953125 48.6640625 C-26.58309007 47.24735881 -28.70291142 45.85779321 -30.8125 44.0625 C-31.39644531 43.57910156 -31.98039062 43.09570312 -32.58203125 42.59765625 C-34.21235271 40.76073758 -34.60139738 39.3967924 -35 37 C-35.66 37 -36.32 37 -37 37 C-39.9216332 29.33071285 -40.88773551 19.29278051 -37.5625 11.625 C-29.35746338 -1.97191783 -14.47343791 -5.51369063 0 0 Z " fill="#3DAACF" transform="translate(361,140)"/>
<path d="M0 0 C1.81762695 1.26586914 1.81762695 1.26586914 3.48828125 3.03515625 C4.10896484 3.67630371 4.72964844 4.31745117 5.36914062 4.97802734 C6.01044922 5.66590332 6.65175781 6.3537793 7.3125 7.0625 C8.63929322 8.45433845 9.96869385 9.84369635 11.30078125 11.23046875 C11.93580566 11.89224121 12.57083008 12.55401367 13.22509766 13.23583984 C15.33512597 15.33309769 17.61255136 17.10448499 20 18.875 C21.9278085 20.55025717 22.85293802 21.3992892 23.4609375 23.8828125 C23.03699773 34.32714686 17.06701167 45.83726376 10.02734375 53.265625 C6.79201238 56.03342293 4.33534363 58 0 58 C-1.79275866 54.88089144 -2.34290718 52.32317572 -2.625 48.75 C-2.69976562 47.85796875 -2.77453125 46.9659375 -2.8515625 46.046875 C-2.90054688 45.37140625 -2.94953125 44.6959375 -3 44 C-3.94875 44.763125 -4.8975 45.52625 -5.875 46.3125 C-13.26459903 51.5461798 -21.1382582 52.50907878 -30 52 C-30.76798326 42.16554764 -28.2095632 34.31440316 -23 26 C-24.8253125 25.814375 -24.8253125 25.814375 -26.6875 25.625 C-30.06479059 25.21108694 -32.89756695 24.45426549 -36 23 C-35.19026903 16.69962752 -31.58064696 13.15665319 -27 9 C-19.733547 4.16786961 -8.85041806 -0.81152884 0 0 Z " fill="#FCF316" transform="translate(130,359)"/>
<path d="M0 0 C4.94249654 3.72227919 8.07917661 8.79405692 9.25390625 14.8671875 C10.09313047 24.37380942 8.67625185 31.46914315 3.00390625 39.1796875 C-2.42447292 44.48469441 -8.87637953 47.00107153 -16.43359375 47.1171875 C-24.55204607 47.01937482 -30.18073543 45.120654 -36.20703125 39.6171875 C-41.762427 33.30039233 -43.05537219 26.09979773 -42.95703125 17.9375 C-42.44161087 10.43527 -39.26072358 4.92012739 -33.74609375 -0.1328125 C-23.18715386 -7.67491242 -10.61651082 -6.88766921 0 0 Z " fill="#3CAACF" transform="translate(284.74609375,223.1328125)"/>
<path d="M0 0 C3.07537937 1.41256123 5.30487367 3.55507125 7.72265625 5.8671875 C8.27058838 6.38240967 8.81852051 6.89763184 9.38305664 7.4284668 C14.70102793 12.47148347 19.90281632 17.63541816 25.09765625 22.8046875 C25.90211182 23.60438965 26.70656738 24.4040918 27.53540039 25.22802734 C29.76459986 27.46350756 31.97005765 29.71843034 34.16015625 31.9921875 C34.79840332 32.64880371 35.43665039 33.30541992 36.09423828 33.98193359 C37.7890625 35.81640625 37.7890625 35.81640625 40.16015625 38.9921875 C39.49856675 44.42479345 35.24559486 47.74140839 31.16015625 50.9921875 C27.66015625 52.4296875 27.66015625 52.4296875 24.16015625 51.9921875 C22.34082031 50.66870117 22.34082031 50.66870117 20.42578125 48.91015625 C19.72453125 48.27247314 19.02328125 47.63479004 18.30078125 46.9777832 C17.594375 46.32253662 16.88796875 45.66729004 16.16015625 44.9921875 C15.19335938 44.11469849 15.19335938 44.11469849 14.20703125 43.21948242 C7.00121166 36.66059925 -0.0892998 29.95824348 -6.83984375 22.9296875 C-7.34999023 22.41841309 -7.86013672 21.90713867 -8.38574219 21.38037109 C-10.71040356 18.89828529 -11.79426049 17.26500157 -12.359375 13.8828125 C-11.75696402 10.53105215 -10.87106326 9.23575059 -8.52734375 6.8046875 C-7.91246094 6.15113281 -7.29757813 5.49757813 -6.6640625 4.82421875 C-5.76107422 3.91736328 -5.76107422 3.91736328 -4.83984375 2.9921875 C-4.35128906 2.39792969 -3.86273438 1.80367188 -3.359375 1.19140625 C-1.83984375 -0.0078125 -1.83984375 -0.0078125 0 0 Z " fill="#647177" transform="translate(135.83984375,336.0078125)"/>
<path d="M0 0 C1.0209375 1.0209375 1.0209375 1.0209375 2.0625 2.0625 C2.51367188 2.51238281 2.96484375 2.96226562 3.4296875 3.42578125 C4.56501192 4.56392986 5.69449869 5.70791175 6.8203125 6.85546875 C7.74457031 7.79326172 7.74457031 7.79326172 8.6875 8.75 C9.26886719 9.34296875 9.85023438 9.9359375 10.44921875 10.546875 C11.95513974 12.09641804 11.95513974 12.09641804 14 13 C12.4945581 16.56935418 10.40712438 18.77091235 7.625 21.4375 C4.49822056 24.48397692 1.69001893 27.55677577 -1 31 C-4.45956164 32.72978082 -8.21069782 32.34328173 -12 32 C-18.1719289 29.70346832 -21.48881077 23.26678385 -25 18 C-24.05125 18.020625 -23.1025 18.04125 -22.125 18.0625 C-16.07722131 17.20725857 -12.13253786 12.11325697 -8 8 C-7.20207031 7.21625 -6.40414062 6.4325 -5.58203125 5.625 C-3.70532005 3.76489686 -1.84504971 1.89143364 0 0 Z " fill="#C84847" transform="translate(195,351)"/>
<path d="M0 0 C4.33333333 4.33333333 8.66666667 8.66666667 13 13 C11.6464533 16.02696243 10.13058971 18.1004907 7.77734375 20.42578125 C7.15666016 21.05806641 6.53597656 21.69035156 5.89648438 22.34179688 C4.59438936 23.65168109 3.28449289 24.95385782 1.96679688 26.24804688 C-2.13591494 30.46175817 -3.86932419 33.05809414 -4 39 C-6.70455739 37.04708139 -9.35793356 35.03649114 -12 33 C-12.99 32.2575 -13.98 31.515 -15 30.75 C-17.56389007 27.22465115 -17.84302751 24.84485847 -17.6015625 20.54296875 C-16.49110741 15.84877224 -13.42132435 13.22289957 -10 10 C-8.18629018 8.16786352 -6.37381508 6.33450403 -4.5625 4.5 C-3.04414831 2.99748805 -1.52419005 1.49658903 0 0 Z " fill="#C84747" transform="translate(146,302)"/>
<path d="M0 0 C1.98 1.65 3.96 3.3 6 5 C5.14119247 10.45956213 1.17737878 13.70285461 -3 17 C-6.625 18.3125 -6.625 18.3125 -10 18 C-12.38011533 16.54986351 -14.00324807 14.99675193 -16 13 C-14.1054703 11.7369802 -12.19068884 10.50337725 -10.25 9.3125 C-6.39608771 6.57029318 -3.24752834 3.42047363 0 0 Z " fill="#3E4347" transform="translate(170,370)"/>
<path d="M0 0 C2.84097683 1.37744331 4.1624022 3.52471602 6.0625 6 C5.36382812 6.65226562 4.66515625 7.30453125 3.9453125 7.9765625 C3.03523437 8.85054688 2.12515625 9.72453125 1.1875 10.625 C0.28257812 11.48351562 -0.62234375 12.34203125 -1.5546875 13.2265625 C-4.04248082 16.12219079 -5.00206695 18.33353252 -5.9375 22 C-11.66509022 17.94295693 -11.66509022 17.94295693 -12.75 14.1875 C-11.51753411 9.35244151 -8.39696675 6.47428246 -4.9375 3 C-4.14085937 2.13955078 -4.14085937 2.13955078 -3.328125 1.26171875 C-1.9375 0 -1.9375 0 0 0 Z " fill="#3E4347" transform="translate(135.9375,336)"/>
<path d="M0 0 C1.9375 1.125 1.9375 1.125 3 3 C3.54068562 6.63031776 3.46379841 8.32214079 1.375 11.375 C-1.67785921 13.46379841 -3.36968224 13.54068562 -7 13 C-8.875 11.9375 -8.875 11.9375 -10 10 C-10.36528977 6.5906288 -10.6140629 4.11976176 -8.9375 1.0625 C-5.88023824 -0.6140629 -3.4093712 -0.36528977 0 0 Z " fill="#FCFDFD" transform="translate(390,44)"/>
<path d="M0 0 C3.375 0.9375 3.375 0.9375 5.375 3.9375 C5.70002803 7.05776907 5.88651479 9.08497535 4.25 11.8125 C1.45053259 13.49218045 -0.42304064 13.39492277 -3.625 12.9375 C-6.4162125 10.95427007 -7.45097224 9.80763879 -8.125 6.4375 C-7.12997193 1.46235967 -5.00784378 -0.08634213 0 0 Z " fill="#FAFBFC" transform="translate(462.625,119.0625)"/>
<path d="M0 0 C3.125 0.375 3.125 0.375 5.5 2.0625 C7.125 4.375 7.125 4.375 7.625 6.875 C6.95747946 10.2126027 5.85751347 11.38100369 3.125 13.375 C-0.19874383 14.03974877 -1.41502606 13.67761443 -4.25 11.8125 C-5.875 9.375 -5.875 9.375 -5.75 5.75 C-4.68943783 1.65926021 -4.24609182 0.55383806 0 0 Z " fill="#FCFDFD" transform="translate(441.875,100.625)"/>
<path d="M0 0 C1.875 1.125 1.875 1.125 3 3 C3.39365568 6.14924548 3.52854531 8.11909116 1.875 10.875 C-0.88090884 12.52854531 -2.85075452 12.39365568 -6 12 C-7.875 10.9375 -7.875 10.9375 -9 9 C-9.375 5.4375 -9.375 5.4375 -9 2 C-5.53076119 -0.31282587 -4.07794425 -0.42478586 0 0 Z " fill="#FDFEFE" transform="translate(427,82)"/>
<path d="M0 0 C3.5625 0.3125 3.5625 0.3125 5.5 1.4375 C7.06672245 4.20230433 6.95226435 6.19438517 6.5625 9.3125 C5.4375 11.1875 5.4375 11.1875 3.5625 12.3125 C0.44438517 12.70226435 -1.54769567 12.81672245 -4.3125 11.25 C-6.05723477 8.24517901 -5.74585443 5.70439869 -5.4375 2.3125 C-3.4375 0.3125 -3.4375 0.3125 0 0 Z " fill="#FDFEFE" transform="translate(404.4375,62.6875)"/>
<path d="M0 0 C-0.33 4.95 -0.66 9.9 -1 15 C-1.33 15 -1.66 15 -2 15 C-2 10.71 -2 6.42 -2 2 C-6.29 2 -10.58 2 -15 2 C-15 1.67 -15 1.34 -15 1 C-13.25021843 0.83105557 -11.50016388 0.66493691 -9.75 0.5 C-8.77546875 0.4071875 -7.8009375 0.314375 -6.796875 0.21875 C-4.53697847 0.04199832 -2.26679807 0 0 0 Z " fill="#C59EA3" transform="translate(496,16)"/>
<path d="" fill="#5097B6" transform="translate(0,0)"/>
<path d="" fill="#5097B6" transform="translate(0,0)"/>
<path d="" fill="#C6D0D8" transform="translate(0,0)"/>
</svg>
